<svg width="94" height="39" fill="none" xmlns="http://www.w3.org/2000/svg"><path d="M21.5401 14.3821l-4.3603 13.415h-3.3131l-2.9322-9.0839-3.0275 9.0839H4.613L.2336 14.3821h3.1989l3.0084 9.4288 3.1417-9.4288h2.8561l3.0465 9.5055 3.1036-9.5055h2.9513zM32.3261 22.6803c0 .0384-.019.3067-.0572.8049h-7.7494c.1395.6388.4696 1.1435.99 1.514.5204.3705 1.1679.5558 1.9422.5558.5332 0 1.0028-.0767 1.409-.23.4188-.1661.806-.4216 1.1615-.7666l1.5804 1.7248c-.9648 1.1116-2.3738 1.6673-4.2271 1.6673-1.1552 0-2.1771-.2236-3.0655-.6707-.8887-.46-1.5741-1.0924-2.0564-1.8973-.4824-.8049-.7236-1.7184-.7236-2.7405 0-1.0093.2349-1.9164.7045-2.7213.4823-.8177 1.1361-1.4501 1.9613-1.8973.8377-.4599 1.7706-.6899 2.7988-.6899 1.0028 0 1.9105.2172 2.7229.6516.8125.4344 1.447 1.0604 1.9041 1.8781.4697.8049.7045 1.7439.7045 2.8171zm-5.3124-3.0854c-.6727 0-1.2377.1916-1.6946.5749-.4569.3833-.7362.9071-.8378 1.5715h5.0458c-.1016-.6516-.3808-1.169-.8377-1.5523-.4571-.3961-1.0156-.5941-1.6757-.5941zM40.3592 17.3336c.9522 0 1.8153.2236 2.5895.6707.7871.4344 1.4028 1.0541 1.8471 1.859.4442.7921.6664 1.7184.6664 2.7788s-.2222 1.9931-.6664 2.798c-.4443.7921-1.06 1.4118-1.8471 1.8589-.7742.4344-1.6373.6516-2.5895.6516-1.409 0-2.4816-.4471-3.2178-1.3415v1.1882h-2.8371V13.5774h2.9704v5.0019c.7489-.8305 1.7771-1.2457 3.0845-1.2457zm-.5141 8.164c.7617 0 1.3837-.2555 1.866-.7666.4952-.5238.7426-1.2201.7426-2.0889 0-.8688-.2474-1.5587-.7426-2.0697-.4823-.5239-1.1043-.7858-1.866-.7858-.7615 0-1.3899.2619-1.885.7858-.4822.511-.7235 1.2009-.7235 2.0697s.2413 1.5651.7235 2.0889c.4951.5111 1.1235.7666 1.885.7666zM59.8832 14.3821v13.415h-3.0847v-5.5002h-6.0549v5.5002h-3.0845v-13.415h3.0845v5.2893h6.0549v-5.2893h3.0847zM72.859 22.6803c0 .0384-.019.3067-.057.8049h-7.7497c.1398.6388.4697 1.1435.9903 1.514.5204.3705 1.1677.5558 1.942.5558.5331 0 1.0028-.0767 1.409-.23.419-.1661.8061-.4216 1.1616-.7666l1.5802 1.7248c-.9647 1.1116-2.3735 1.6673-4.2269 1.6673-1.1551 0-2.177-.2236-3.0654-.6707-.8887-.46-1.5742-1.0924-2.0566-1.8973-.4823-.8049-.7234-1.7184-.7234-2.7405 0-1.0093.2349-1.9164.7045-2.7213.4823-.8177 1.1361-1.4501 1.9611-1.8973.8377-.4599 1.7708-.6899 2.799-.6899 1.0028 0 1.9103.2172 2.7227.6516.8124.4344 1.4472 1.0604 1.9041 1.8781.4697.8049.7045 1.7439.7045 2.8171zm-5.3123-3.0854c-.6726 0-1.2376.1916-1.6945.5749-.4571.3833-.7364.9071-.8378 1.5715H70.06c-.1014-.6516-.3806-1.169-.8377-1.5523-.4569-.3961-1.0155-.5941-1.6756-.5941zM77.6764 18.8475c.3555-.4983.8315-.8752 1.4281-1.1307.6094-.2555 1.3074-.3833 2.0945-.3833v2.7597c-.33-.0256-.5522-.0384-.6664-.0384-.8505 0-1.5169.2428-1.9992.7283-.4824.4727-.7236 1.1882-.7236 2.1464v4.8677h-2.9703V17.4868h2.8369v1.3607zM87.7439 27.9505c-1.0791 0-2.0501-.2236-2.9132-.6707-.8505-.46-1.5169-1.0924-1.9993-1.8973-.4823-.8049-.7236-1.7184-.7236-2.7405s.2413-1.9356.7236-2.7405c.4824-.8049 1.1488-1.4309 1.9993-1.8781.8631-.4599 1.8341-.6899 2.9132-.6899 1.0789 0 2.0436.23 2.8941.6899.8506.4472 1.517 1.0732 1.9994 1.8781.4823.8049.7234 1.7184.7234 2.7405s-.2411 1.9356-.7234 2.7405c-.4824.8049-1.1488 1.4373-1.9994 1.8973-.8505.4471-1.8152.6707-2.8941.6707zm0-2.453c.7615 0 1.3837-.2555 1.866-.7666.495-.5238.7426-1.2201.7426-2.0889 0-.8688-.2476-1.5587-.7426-2.0697-.4823-.5239-1.1045-.7858-1.866-.7858-.7617 0-1.39.2619-1.885.7858-.495.511-.7426 1.2009-.7426 2.0697s.2476 1.5651.7426 2.0889c.495.5111 1.1233.7666 1.885.7666z" fill="#FFD22E"/><path d="M60.3972 38.5633c-.5731 0-1.128-.0876-1.6648-.2629-.5293-.1823-.9466-.416-1.2512-.7008l.4026-.8542c.2901.2629.6601.4782 1.1097.6462.4571.1607.9249.241 1.4037.241.631 0 1.1026-.106 1.4144-.3177.3119-.219.468-.5074.468-.8651 0-.2627-.0871-.4746-.2612-.6351-.1669-.1679-.3772-.2956-.6311-.3833-.2467-.0876-.5983-.1862-1.0554-.2956-.573-.1389-1.0372-.2775-1.3927-.4163-.3482-.1386-.6492-.3503-.9031-.6351-.2467-.292-.3698-.6825-.3698-1.1719 0-.4088.105-.7775.3155-1.1059.2176-.3286.544-.5914.9792-.7885.4351-.1971.9755-.2957 1.6211-.2957.4497 0 .8923.0584 1.3275.1752.4352.1169.8088.2848 1.1206.5038l-.3591.8761a3.7927 3.7927 0 0 0-1.0227-.46c-.3627-.1095-.718-.1642-1.0663-.1642-.6164 0-1.0808.1131-1.3926.3394-.3046.2263-.4571.5183-.4571.8761 0 .2629.0871.4782.2611.6462.1743.1605.3881.2884.642.3833.2612.0876.6131.1825 1.0555.2847.573.1386 1.0335.2775 1.3818.4161.3482.1386.6456.3505.8922.6352.2537.2848.3807.668.3807 1.1499 0 .4015-.1087.7702-.3263 1.1059-.2177.3285-.5477.5914-.9901.7885-.4426.1898-.9866.2847-1.6321.2847zM67.2958 38.5418c-.5877 0-1.1134-.1277-1.5778-.3833-.4569-.2556-.816-.6059-1.0771-1.0513-.2612-.4527-.3918-.9637-.3918-1.5332 0-.5695.1306-1.0768.3918-1.5222.2611-.4525.6202-.803 1.0771-1.0513.4644-.2554.9901-.3833 1.5778-.3833.5222 0 .9864.106 1.3926.3177.4134.2117.7325.5183.9575.9198l-.7943.5148c-.1813-.2774-.4062-.4855-.6746-.6243-.2684-.1386-.5658-.208-.8921-.208-.3772 0-.7182.0839-1.0229.2519-.2973.1678-.5331.4088-.7071.7227-.1668.3066-.2503.6607-.2503 1.0622 0 .4088.0835.7702.2503 1.0841.174.3068.4098.544.7071.712.3047.1679.6457.2517 1.0229.2517.3263 0 .6237-.0692.8921-.208.2684-.1387.4933-.3467.6746-.6241l.7943.5037c-.225.4015-.5441.7117-.9575.9309-.4062.2116-.8704.3175-1.3926.3175zM74.0036 32.6164c.7326 0 1.313.2155 1.7409.6462.4352.4235.6529 1.0476.6529 1.8727v3.3399h-1.0446v-3.2195c0-.5622-.1342-.9856-.4026-1.2703-.2683-.2847-.6528-.4272-1.1534-.4272-.5657 0-1.0118.168-1.3381.5037-.3265.3287-.4897.8032-.4897 1.4237v2.9896h-1.0446v-8.1256h1.0446v3.143c.2177-.2774.5006-.4929.8486-.6461.3555-.1534.7509-.2301 1.186-.2301zM80.8323 38.5418c-.573 0-1.088-.1277-1.5449-.3833-.4571-.2556-.8161-.6059-1.0772-1.0513-.2539-.4527-.3809-.9637-.3809-1.5332 0-.5695.127-1.0768.3809-1.5222.2611-.4525.6201-.803 1.0772-1.0513.4569-.2554.9719-.3833 1.5449-.3833s1.0844.1279 1.5341.3833c.4571.2483.8124.5988 1.0663 1.0513.2611.4454.3917.9527.3917 1.5222s-.1306 1.0805-.3917 1.5332c-.2539.4454-.6092.7957-1.0663 1.0513-.4497.2556-.9611.3833-1.5341.3833zm0-.92c.37 0 .6999-.0838.9901-.2517.2975-.1753.5295-.4163.6963-.7229.167-.3139.2503-.6717.2503-1.0732 0-.4015-.0833-.7556-.2503-1.0622-.1668-.3139-.3988-.5549-.6963-.7227-.2902-.168-.6201-.2519-.9901-.2519s-.7036.0839-1.0009.2519c-.2901.1678-.5223.4088-.6963.7227-.167.3066-.2503.6607-.2503 1.0622 0 .4015.0833.7593.2503 1.0732.174.3066.4062.5476.6963.7229.2973.1679.6309.2517 1.0009.2517zM87.7364 38.5418c-.5732 0-1.088-.1277-1.5451-.3833-.4569-.2556-.816-.6059-1.0772-1.0513-.2539-.4527-.3808-.9637-.3808-1.5332 0-.5695.1269-1.0768.3808-1.5222.2612-.4525.6203-.803 1.0772-1.0513.4571-.2554.9719-.3833 1.5451-.3833.573 0 1.0844.1279 1.5341.3833.4569.2483.8124.5988 1.0663 1.0513.2612.4454.3917.9527.3917 1.5222s-.1305 1.0805-.3917 1.5332c-.2539.4454-.6094.7957-1.0663 1.0513-.4497.2556-.9611.3833-1.5341.3833zm0-.92c.3698 0 .7-.0838.9901-.2517.2973-.1753.5295-.4163.6963-.7229.1668-.3139.2503-.6717.2503-1.0732 0-.4015-.0835-.7556-.2503-1.0622-.1668-.3139-.399-.5549-.6963-.7227-.2901-.168-.6203-.2519-.9901-.2519-.37 0-.7037.0839-1.0011.2519-.2901.1678-.5223.4088-.6963.7227-.1668.3066-.2503.6607-.2503 1.0622 0 .4015.0835.7593.2503 1.0732.174.3066.4062.5476.6963.7229.2974.1679.6311.2517 1.0011.2517zM92.1755 30.3496h1.0446v8.1256h-1.0446v-8.1256zM8.0976.9217h-2.615v6.0414h1.3981V5.2974h1.217c1.6139 0 2.6236-.8371 2.6236-2.1835 0-1.355-1.0097-2.1922-2.6237-2.1922zM8.02 4.1582H6.8807V2.0609H8.02c.8545 0 1.286.3884 1.286 1.053 0 .656-.4315 1.0443-1.286 1.0443zM15.9663 6.9631h1.4672L14.7321.9217h-1.3809l-2.6928 6.0414h1.4327l.5351-1.2946h2.805l.5351 1.2946zM13.075 4.607l.958-2.313.958 2.313h-1.916zM21.6696 3.813c.5351-.233.8717-.6991.8717-1.286 0-1.0961-1.2082-1.7348-2.6064-1.7348-.6905 0-1.4154.1554-2.0714.492l.4229 1.0874c.5179-.2934 1.1134-.4315 1.6226-.4315.6818 0 1.2169.259 1.2169.7509 0 .397-.3279.6473-.8976.6473h-1.3722v1.053h1.4758c.63 0 1.0443.2243 1.0443.6817 0 .561-.6473.8545-1.4413.8545-.5869 0-1.2601-.1554-1.8124-.492l-.4316 1.0012c.7509.4315 1.6053.63 2.408.63 1.4499 0 2.6927-.656 2.6927-1.7952 0-.6818-.4229-1.2169-1.122-1.4585zM26.5136.9217h-2.6151v6.0414h1.3982V5.2974h1.2169c1.6139 0 2.6237-.8371 2.6237-2.1835 0-1.355-1.0098-2.1922-2.6237-2.1922zm-.0777 3.2365h-1.1392V2.0609h1.1392c.8545 0 1.286.3884 1.286 1.053 0 .656-.4315 1.0443-1.286 1.0443zM34.3822 6.9631h1.4673L33.1481.9217h-1.3809l-2.6928 6.0414h1.4327l.5351-1.2946h2.8049l.5351 1.2946zM31.491 4.607l.958-2.313.958 2.313h-1.916zM36.6506 6.9631h2.8654c1.5535 0 2.4425-.699 2.4425-1.9073 0-1.1565-.7854-1.778-2.244-1.778h-1.6743V2.035h3.4867V.9218h-4.8763v6.0414zm1.3896-1.0356V4.3049h1.3981c.7336 0 1.1047.259 1.1047.794 0 .5438-.3883.8286-1.1047.8286h-1.3981zM45.9051 7.0667c1.8987 0 3.3055-1.3205 3.3055-3.1243 0-1.8038-1.4068-3.1243-3.3055-3.1243-1.9074 0-3.3055 1.3292-3.3055 3.1243 0 1.7952 1.3981 3.1243 3.3055 3.1243zm0-1.191c-1.0788 0-1.8901-.7854-1.8901-1.9333s.8113-1.9332 1.8901-1.9332c1.0788 0 1.8901.7854 1.8901 1.9332 0 1.1479-.8113 1.9333-1.8901 1.9333zM54.8208.9217H49.582v1.1392h1.9246v4.9022h1.381V2.061h1.9332V.9217zM60.0213 6.9631h1.4672L58.7871.9217h-1.3809l-2.6927 6.0414h1.4327l.5351-1.2946h2.8049l.5351 1.2946zM57.1301 4.607l.958-2.313.958 2.313h-1.916zM66.4324.9217v2.382h-2.7445V.9217h-1.3982v6.0414h1.3982v-2.477h2.7445v2.477h1.3982V.9217h-1.3982zM72.2269 7.0667c1.8987 0 3.3055-1.3205 3.3055-3.1243 0-1.8038-1.4068-3.1243-3.3055-3.1243-1.9074 0-3.3056 1.3292-3.3056 3.1243 0 1.7952 1.3982 3.1243 3.3056 3.1243zm0-1.191c-1.0789 0-1.8901-.7854-1.8901-1.9333s.8112-1.9332 1.8901-1.9332c1.0788 0 1.8901.7854 1.8901 1.9332 0 1.1479-.8113 1.9333-1.8901 1.9333zM83.2396 3.813c.5351-.259.8544-.7164.8544-1.3292 0-1.0011-.8285-1.5621-2.2267-1.5621h-2.8136v6.0414h2.9776c1.5276 0 2.3475-.6472 2.3475-1.7002 0-.7336-.4056-1.2342-1.1392-1.45zm-2.7964-1.8556h1.3033c.6041 0 .9234.2589.9234.7336 0 .4833-.3193.7336-.9234.7336h-1.3033V1.9574zm1.5363 3.97h-1.5363V4.3999h1.5363c.6473 0 .9839.2417.9839.751 0 .5264-.3366.7767-.9839.7767z" fill="#000"/></svg>