<svg width="321" height="233" viewBox="0 0 321 233" fill="none" xmlns="http://www.w3.org/2000/svg">
<path d="M1.77832 205V192.203H5.96191C7.35059 192.203 8.39355 192.49 9.09082 193.064C9.79395 193.639 10.1455 194.488 10.1455 195.613C10.1455 196.211 9.97559 196.741 9.63574 197.204C9.2959 197.661 8.83301 198.016 8.24707 198.268C8.93848 198.461 9.4834 198.83 9.88184 199.375C10.2861 199.914 10.4883 200.559 10.4883 201.309C10.4883 202.457 10.1162 203.359 9.37207 204.016C8.62793 204.672 7.57617 205 6.2168 205H1.77832ZM3.46582 199.015V203.62H6.25195C7.03711 203.62 7.65527 203.418 8.10645 203.014C8.56348 202.604 8.79199 202.041 8.79199 201.326C8.79199 199.785 7.9541 199.015 6.27832 199.015H3.46582ZM3.46582 197.661H6.01465C6.75293 197.661 7.3418 197.477 7.78125 197.107C8.22656 196.738 8.44922 196.237 8.44922 195.604C8.44922 194.901 8.24414 194.392 7.83398 194.075C7.42383 193.753 6.7998 193.592 5.96191 193.592H3.46582V197.661ZM14.5137 198.769H16.9834C18.0615 198.78 18.9141 199.062 19.541 199.612C20.168 200.163 20.4814 200.91 20.4814 201.854C20.4814 202.803 20.1592 203.564 19.5146 204.139C18.8701 204.713 18.0029 205 16.9131 205H12.8877V195.49H14.5137V198.769ZM23.874 205H22.2393V195.49H23.874V205ZM14.5137 200.096V203.673H16.9307C17.54 203.673 18.0117 203.518 18.3457 203.207C18.6797 202.891 18.8467 202.46 18.8467 201.915C18.8467 201.388 18.6826 200.957 18.3545 200.623C18.0322 200.283 17.5781 200.107 16.9922 200.096H14.5137ZM35.124 205.176C33.835 205.176 32.7861 204.754 31.9775 203.91C31.1689 203.061 30.7646 201.927 30.7646 200.509V200.21C30.7646 199.267 30.9434 198.426 31.3008 197.688C31.6641 196.943 32.168 196.363 32.8125 195.947C33.4629 195.525 34.166 195.314 34.9219 195.314C36.1582 195.314 37.1191 195.722 37.8047 196.536C38.4902 197.351 38.833 198.517 38.833 200.034V200.711H32.3906C32.4141 201.648 32.6865 202.407 33.208 202.987C33.7354 203.562 34.4033 203.849 35.2119 203.849C35.7861 203.849 36.2725 203.731 36.6709 203.497C37.0693 203.263 37.418 202.952 37.7168 202.565L38.71 203.339C37.9131 204.563 36.7178 205.176 35.124 205.176ZM34.9219 196.65C34.2656 196.65 33.7148 196.891 33.2695 197.371C32.8242 197.846 32.5488 198.514 32.4434 199.375H37.207V199.252C37.1602 198.426 36.9375 197.787 36.5391 197.336C36.1406 196.879 35.6016 196.65 34.9219 196.65ZM42.4014 195.49V203.673H45.8818V195.49H47.5078V203.673H50.9795V195.49H52.6143V203.673H53.9502L53.792 207.821H52.333V205H40.7666V195.49H42.4014ZM59.6631 205.176C58.374 205.176 57.3252 204.754 56.5166 203.91C55.708 203.061 55.3037 201.927 55.3037 200.509V200.21C55.3037 199.267 55.4824 198.426 55.8398 197.688C56.2031 196.943 56.707 196.363 57.3516 195.947C58.002 195.525 58.7051 195.314 59.4609 195.314C60.6973 195.314 61.6582 195.722 62.3438 196.536C63.0293 197.351 63.3721 198.517 63.3721 200.034V200.711H56.9297C56.9531 201.648 57.2256 202.407 57.7471 202.987C58.2744 203.562 58.9424 203.849 59.751 203.849C60.3252 203.849 60.8115 203.731 61.21 203.497C61.6084 203.263 61.957 202.952 62.2559 202.565L63.249 203.339C62.4521 204.563 61.2568 205.176 59.6631 205.176ZM59.4609 196.65C58.8047 196.65 58.2539 196.891 57.8086 197.371C57.3633 197.846 57.0879 198.514 56.9824 199.375H61.7461V199.252C61.6992 198.426 61.4766 197.787 61.0781 197.336C60.6797 196.879 60.1406 196.65 59.4609 196.65ZM56.6221 192.95C56.6221 192.687 56.7012 192.467 56.8594 192.291C57.0234 192.109 57.2637 192.019 57.5801 192.019C57.8965 192.019 58.1367 192.109 58.3008 192.291C58.4648 192.467 58.5469 192.687 58.5469 192.95C58.5469 193.214 58.4648 193.434 58.3008 193.609C58.1367 193.785 57.8965 193.873 57.5801 193.873C57.2637 193.873 57.0234 193.785 56.8594 193.609C56.7012 193.434 56.6221 193.214 56.6221 192.95ZM60.4014 192.968C60.4014 192.704 60.4805 192.481 60.6387 192.3C60.8027 192.118 61.043 192.027 61.3594 192.027C61.6758 192.027 61.916 192.118 62.0801 192.3C62.2441 192.481 62.3262 192.704 62.3262 192.968C62.3262 193.231 62.2441 193.451 62.0801 193.627C61.916 193.803 61.6758 193.891 61.3594 193.891C61.043 193.891 60.8027 193.803 60.6387 193.627C60.4805 193.451 60.4014 193.231 60.4014 192.968ZM77.4961 205H75.8701V200.939H71.502V205H69.8672V195.49H71.502V199.612H75.8701V195.49H77.4961V205ZM84.0615 205.176C82.7725 205.176 81.7236 204.754 80.915 203.91C80.1064 203.061 79.7021 201.927 79.7021 200.509V200.21C79.7021 199.267 79.8809 198.426 80.2383 197.688C80.6016 196.943 81.1055 196.363 81.75 195.947C82.4004 195.525 83.1035 195.314 83.8594 195.314C85.0957 195.314 86.0566 195.722 86.7422 196.536C87.4277 197.351 87.7705 198.517 87.7705 200.034V200.711H81.3281C81.3516 201.648 81.624 202.407 82.1455 202.987C82.6729 203.562 83.3408 203.849 84.1494 203.849C84.7236 203.849 85.21 203.731 85.6084 203.497C86.0068 203.263 86.3555 202.952 86.6543 202.565L87.6475 203.339C86.8506 204.563 85.6553 205.176 84.0615 205.176ZM83.8594 196.65C83.2031 196.65 82.6523 196.891 82.207 197.371C81.7617 197.846 81.4863 198.514 81.3809 199.375H86.1445V199.252C86.0977 198.426 85.875 197.787 85.4766 197.336C85.0781 196.879 84.5391 196.65 83.8594 196.65ZM94.0459 203.673L94.6084 202.979C95.2412 202.158 95.6016 200.928 95.6895 199.287L95.8389 195.49H101.965V203.673H103.187V207.795H101.561V205H94.9248V207.795H93.2988L93.3076 203.673H94.0459ZM95.9707 203.673H100.339V196.993H97.4121L97.3154 199.261C97.2158 201.153 96.7676 202.624 95.9707 203.673ZM104.558 200.157C104.558 199.226 104.739 198.388 105.103 197.644C105.472 196.899 105.981 196.325 106.632 195.921C107.288 195.517 108.035 195.314 108.873 195.314C110.168 195.314 111.214 195.763 112.011 196.659C112.813 197.556 113.215 198.748 113.215 200.236V200.351C113.215 201.276 113.036 202.108 112.679 202.847C112.327 203.579 111.82 204.15 111.158 204.561C110.502 204.971 109.746 205.176 108.891 205.176C107.602 205.176 106.556 204.728 105.753 203.831C104.956 202.935 104.558 201.748 104.558 200.271V200.157ZM106.192 200.351C106.192 201.405 106.436 202.252 106.922 202.891C107.414 203.529 108.07 203.849 108.891 203.849C109.717 203.849 110.373 203.526 110.859 202.882C111.346 202.231 111.589 201.323 111.589 200.157C111.589 199.114 111.34 198.271 110.842 197.626C110.35 196.976 109.693 196.65 108.873 196.65C108.07 196.65 107.423 196.97 106.931 197.608C106.438 198.247 106.192 199.161 106.192 200.351ZM119.429 196.035C120.624 196.035 121.579 196.437 122.294 197.239C123.015 198.036 123.375 199.088 123.375 200.395V200.544C123.375 201.44 123.202 202.243 122.856 202.952C122.511 203.655 122.013 204.203 121.362 204.596C120.718 204.982 119.974 205.176 119.13 205.176C117.853 205.176 116.824 204.751 116.045 203.901C115.266 203.046 114.876 201.9 114.876 200.465V199.674C114.876 197.676 115.245 196.088 115.983 194.91C116.728 193.732 117.823 193.015 119.271 192.757C120.091 192.61 120.645 192.432 120.932 192.221C121.219 192.01 121.362 191.72 121.362 191.351H122.698C122.698 192.083 122.531 192.654 122.197 193.064C121.869 193.475 121.342 193.765 120.615 193.935L119.402 194.207C118.436 194.436 117.709 194.822 117.223 195.367C116.742 195.906 116.429 196.627 116.282 197.529C117.144 196.533 118.192 196.035 119.429 196.035ZM119.112 197.371C118.315 197.371 117.683 197.641 117.214 198.18C116.745 198.713 116.511 199.454 116.511 200.403V200.544C116.511 201.563 116.745 202.372 117.214 202.97C117.688 203.562 118.327 203.857 119.13 203.857C119.938 203.857 120.577 203.559 121.046 202.961C121.515 202.363 121.749 201.49 121.749 200.342C121.749 199.445 121.512 198.728 121.037 198.188C120.568 197.644 119.927 197.371 119.112 197.371ZM131.074 205C130.98 204.812 130.904 204.479 130.846 203.998C130.09 204.783 129.188 205.176 128.139 205.176C127.201 205.176 126.431 204.912 125.827 204.385C125.229 203.852 124.931 203.178 124.931 202.363C124.931 201.373 125.306 200.605 126.056 200.061C126.812 199.51 127.872 199.234 129.237 199.234H130.819V198.487C130.819 197.919 130.649 197.468 130.31 197.134C129.97 196.794 129.469 196.624 128.807 196.624C128.227 196.624 127.74 196.771 127.348 197.063C126.955 197.356 126.759 197.711 126.759 198.127H125.124C125.124 197.652 125.291 197.195 125.625 196.756C125.965 196.311 126.422 195.959 126.996 195.701C127.576 195.443 128.212 195.314 128.903 195.314C129.999 195.314 130.857 195.59 131.479 196.141C132.1 196.686 132.422 197.438 132.445 198.399V202.776C132.445 203.649 132.557 204.344 132.779 204.859V205H131.074ZM128.376 203.761C128.886 203.761 129.369 203.629 129.826 203.365C130.283 203.102 130.614 202.759 130.819 202.337V200.386H129.545C127.553 200.386 126.557 200.969 126.557 202.135C126.557 202.645 126.727 203.043 127.066 203.33C127.406 203.617 127.843 203.761 128.376 203.761ZM135.144 205V195.49H138.853C140.118 195.49 141.088 195.713 141.762 196.158C142.441 196.598 142.781 197.245 142.781 198.101C142.781 198.54 142.649 198.938 142.386 199.296C142.122 199.647 141.732 199.917 141.217 200.104C141.791 200.239 142.251 200.503 142.597 200.896C142.948 201.288 143.124 201.757 143.124 202.302C143.124 203.175 142.802 203.843 142.157 204.306C141.519 204.769 140.613 205 139.441 205H135.144ZM136.77 200.825V203.69H139.459C140.139 203.69 140.646 203.564 140.979 203.312C141.319 203.061 141.489 202.706 141.489 202.249C141.489 201.3 140.792 200.825 139.397 200.825H136.77ZM136.77 199.524H138.87C140.394 199.524 141.155 199.079 141.155 198.188C141.155 197.298 140.435 196.838 138.993 196.809H136.77V199.524ZM151.43 195.49H153.056V205H151.43V198.065L147.044 205H145.418V195.49H147.044V202.434L151.43 195.49ZM163.462 195.49V205H161.827V196.835H158.593L158.399 200.395C158.294 202.029 158.019 203.198 157.573 203.901C157.134 204.604 156.434 204.971 155.473 205H154.822V203.567L155.288 203.532C155.815 203.474 156.193 203.169 156.422 202.618C156.65 202.067 156.797 201.048 156.861 199.56L157.037 195.49H163.462ZM172.225 195.49H173.851V205H172.225V198.065L167.839 205H166.213V195.49H167.839V202.434L172.225 195.49ZM188.695 205H187.069V200.939H182.701V205H181.066V195.49H182.701V199.612H187.069V195.49H188.695V205ZM197.467 195.49H199.093V205H197.467V198.065L193.081 205H191.455V195.49H193.081V202.434L197.467 195.49ZM205.737 200.157C205.737 199.226 205.919 198.388 206.282 197.644C206.651 196.899 207.161 196.325 207.812 195.921C208.468 195.517 209.215 195.314 210.053 195.314C211.348 195.314 212.394 195.763 213.19 196.659C213.993 197.556 214.395 198.748 214.395 200.236V200.351C214.395 201.276 214.216 202.108 213.858 202.847C213.507 203.579 213 204.15 212.338 204.561C211.682 204.971 210.926 205.176 210.07 205.176C208.781 205.176 207.735 204.728 206.933 203.831C206.136 202.935 205.737 201.748 205.737 200.271V200.157ZM207.372 200.351C207.372 201.405 207.615 202.252 208.102 202.891C208.594 203.529 209.25 203.849 210.07 203.849C210.896 203.849 211.553 203.526 212.039 202.882C212.525 202.231 212.769 201.323 212.769 200.157C212.769 199.114 212.52 198.271 212.021 197.626C211.529 196.976 210.873 196.65 210.053 196.65C209.25 196.65 208.603 196.97 208.11 197.608C207.618 198.247 207.372 199.161 207.372 200.351ZM215.722 203.673L216.284 202.979C216.917 202.158 217.277 200.928 217.365 199.287L217.515 195.49H223.641V203.673H224.862V207.795H223.236V205H216.601V207.795H214.975L214.983 203.673H215.722ZM217.646 203.673H222.015V196.993H219.088L218.991 199.261C218.892 201.153 218.443 202.624 217.646 203.673ZM234.434 205H232.808V200.939H228.439V205H226.805V195.49H228.439V199.612H232.808V195.49H234.434V205ZM236.622 200.157C236.622 199.226 236.804 198.388 237.167 197.644C237.536 196.899 238.046 196.325 238.696 195.921C239.353 195.517 240.1 195.314 240.938 195.314C242.232 195.314 243.278 195.763 244.075 196.659C244.878 197.556 245.279 198.748 245.279 200.236V200.351C245.279 201.276 245.101 202.108 244.743 202.847C244.392 203.579 243.885 204.15 243.223 204.561C242.566 204.971 241.811 205.176 240.955 205.176C239.666 205.176 238.62 204.728 237.817 203.831C237.021 202.935 236.622 201.748 236.622 200.271V200.157ZM238.257 200.351C238.257 201.405 238.5 202.252 238.986 202.891C239.479 203.529 240.135 203.849 240.955 203.849C241.781 203.849 242.438 203.526 242.924 202.882C243.41 202.231 243.653 201.323 243.653 200.157C243.653 199.114 243.404 198.271 242.906 197.626C242.414 196.976 241.758 196.65 240.938 196.65C240.135 196.65 239.487 196.97 238.995 197.608C238.503 198.247 238.257 199.161 238.257 200.351ZM253.471 195.49H255.097V205H253.471V198.065L249.085 205H247.459V195.49H249.085V202.434L253.471 195.49ZM253.91 192.027C253.91 192.736 253.667 193.308 253.181 193.741C252.7 194.169 252.067 194.383 251.282 194.383C250.497 194.383 249.861 194.166 249.375 193.732C248.889 193.299 248.646 192.73 248.646 192.027H249.973C249.973 192.438 250.084 192.76 250.307 192.994C250.529 193.223 250.854 193.337 251.282 193.337C251.692 193.337 252.012 193.223 252.24 192.994C252.475 192.766 252.592 192.443 252.592 192.027H253.91ZM267.401 198.092C267.401 197.646 267.231 197.295 266.892 197.037C266.552 196.773 266.086 196.642 265.494 196.642C264.92 196.642 264.439 196.791 264.053 197.09C263.672 197.389 263.481 197.74 263.481 198.145H261.864C261.864 197.318 262.21 196.642 262.901 196.114C263.593 195.587 264.457 195.323 265.494 195.323C266.607 195.323 267.475 195.563 268.096 196.044C268.717 196.519 269.027 197.198 269.027 198.083C269.027 198.511 268.898 198.903 268.641 199.261C268.383 199.618 268.017 199.902 267.542 200.113C268.649 200.488 269.203 201.227 269.203 202.328C269.203 203.201 268.866 203.893 268.192 204.402C267.519 204.912 266.619 205.167 265.494 205.167C264.398 205.167 263.493 204.9 262.778 204.367C262.069 203.828 261.715 203.102 261.715 202.188H263.332C263.332 202.65 263.537 203.049 263.947 203.383C264.363 203.711 264.879 203.875 265.494 203.875C266.115 203.875 266.616 203.731 266.997 203.444C267.378 203.157 267.568 202.785 267.568 202.328C267.568 201.795 267.407 201.414 267.085 201.186C266.769 200.951 266.273 200.834 265.6 200.834H263.974V199.463H265.74C266.848 199.434 267.401 198.977 267.401 198.092ZM277.184 205C277.09 204.812 277.014 204.479 276.955 203.998C276.199 204.783 275.297 205.176 274.248 205.176C273.311 205.176 272.54 204.912 271.937 204.385C271.339 203.852 271.04 203.178 271.04 202.363C271.04 201.373 271.415 200.605 272.165 200.061C272.921 199.51 273.981 199.234 275.347 199.234H276.929V198.487C276.929 197.919 276.759 197.468 276.419 197.134C276.079 196.794 275.578 196.624 274.916 196.624C274.336 196.624 273.85 196.771 273.457 197.063C273.064 197.356 272.868 197.711 272.868 198.127H271.233C271.233 197.652 271.4 197.195 271.734 196.756C272.074 196.311 272.531 195.959 273.105 195.701C273.686 195.443 274.321 195.314 275.013 195.314C276.108 195.314 276.967 195.59 277.588 196.141C278.209 196.686 278.531 197.438 278.555 198.399V202.776C278.555 203.649 278.666 204.344 278.889 204.859V205H277.184ZM274.485 203.761C274.995 203.761 275.479 203.629 275.936 203.365C276.393 203.102 276.724 202.759 276.929 202.337V200.386H275.654C273.662 200.386 272.666 200.969 272.666 202.135C272.666 202.645 272.836 203.043 273.176 203.33C273.516 203.617 273.952 203.761 274.485 203.761ZM281.024 203.673L281.587 202.979C282.22 202.158 282.58 200.928 282.668 199.287L282.817 195.49H288.943V203.673H290.165V207.795H288.539V205H281.903V207.795H280.277L280.286 203.673H281.024ZM282.949 203.673H287.317V196.993H284.391L284.294 199.261C284.194 201.153 283.746 202.624 282.949 203.673ZM297.838 205C297.744 204.812 297.668 204.479 297.609 203.998C296.854 204.783 295.951 205.176 294.902 205.176C293.965 205.176 293.194 204.912 292.591 204.385C291.993 203.852 291.694 203.178 291.694 202.363C291.694 201.373 292.069 200.605 292.819 200.061C293.575 199.51 294.636 199.234 296.001 199.234H297.583V198.487C297.583 197.919 297.413 197.468 297.073 197.134C296.733 196.794 296.232 196.624 295.57 196.624C294.99 196.624 294.504 196.771 294.111 197.063C293.719 197.356 293.522 197.711 293.522 198.127H291.888C291.888 197.652 292.055 197.195 292.389 196.756C292.729 196.311 293.186 195.959 293.76 195.701C294.34 195.443 294.976 195.314 295.667 195.314C296.763 195.314 297.621 195.59 298.242 196.141C298.863 196.686 299.186 197.438 299.209 198.399V202.776C299.209 203.649 299.32 204.344 299.543 204.859V205H297.838ZM295.14 203.761C295.649 203.761 296.133 203.629 296.59 203.365C297.047 203.102 297.378 202.759 297.583 202.337V200.386H296.309C294.316 200.386 293.32 200.969 293.32 202.135C293.32 202.645 293.49 203.043 293.83 203.33C294.17 203.617 294.606 203.761 295.14 203.761ZM308.938 205H307.304V201.555C306.589 201.742 305.856 201.836 305.106 201.836C303.917 201.836 303.009 201.531 302.382 200.922C301.761 200.312 301.444 199.445 301.433 198.32V195.481H303.059V198.373C303.088 199.791 303.771 200.5 305.106 200.5C305.856 200.5 306.589 200.406 307.304 200.219V195.49H308.938V205ZM317.701 195.49H319.327V205H317.701V198.065L313.315 205H311.689V195.49H313.315V202.434L317.701 195.49Z" fill="black"/>
<path d="M75.8701 226.842C75.7471 227.895 75.3574 228.708 74.7012 229.282C74.0495 229.852 73.1813 230.137 72.0967 230.137C70.9209 230.137 69.9775 229.715 69.2666 228.872C68.5602 228.029 68.207 226.901 68.207 225.488V224.531C68.207 223.606 68.3711 222.793 68.6992 222.091C69.0319 221.389 69.5013 220.851 70.1074 220.478C70.7135 220.099 71.4154 219.91 72.2129 219.91C73.2702 219.91 74.1178 220.206 74.7559 220.799C75.3939 221.387 75.7653 222.202 75.8701 223.246H74.5508C74.4368 222.453 74.1885 221.879 73.8057 221.523C73.4274 221.168 72.8965 220.99 72.2129 220.99C71.3743 220.99 70.7158 221.3 70.2373 221.92C69.7633 222.54 69.5264 223.422 69.5264 224.565V225.529C69.5264 226.609 69.752 227.468 70.2031 228.106C70.6543 228.744 71.2855 229.063 72.0967 229.063C72.8258 229.063 73.3841 228.899 73.7715 228.571C74.1634 228.239 74.4232 227.662 74.5508 226.842H75.8701ZM77.4082 228.968L77.8457 228.428C78.3379 227.79 78.6182 226.833 78.6865 225.557L78.8027 222.604H83.5674V228.968H84.5176V232.174H83.2529V230H78.0918V232.174H76.8271L76.834 228.968H77.4082ZM78.9053 228.968H82.3027V223.772H80.0264L79.9512 225.536C79.8737 227.008 79.5251 228.152 78.9053 228.968ZM88.9883 230.137C87.9857 230.137 87.1699 229.809 86.541 229.152C85.9121 228.492 85.5977 227.61 85.5977 226.507V226.274C85.5977 225.541 85.7367 224.887 86.0146 224.312C86.2972 223.734 86.6891 223.283 87.1904 222.959C87.6963 222.631 88.2432 222.467 88.8311 222.467C89.7926 222.467 90.54 222.784 91.0732 223.417C91.6064 224.05 91.873 224.957 91.873 226.138V226.664H86.8623C86.8805 227.393 87.0924 227.983 87.498 228.435C87.9082 228.881 88.4277 229.104 89.0566 229.104C89.5033 229.104 89.8815 229.013 90.1914 228.831C90.5013 228.649 90.7725 228.407 91.0049 228.106L91.7773 228.708C91.1576 229.66 90.2279 230.137 88.9883 230.137ZM88.8311 223.506C88.3206 223.506 87.8923 223.693 87.5459 224.066C87.1995 224.436 86.9854 224.955 86.9033 225.625H90.6084V225.529C90.5719 224.887 90.3988 224.39 90.0889 224.039C89.779 223.684 89.3597 223.506 88.8311 223.506ZM99.4062 222.604V230H98.1348V223.649H95.6191L95.4688 226.418C95.3867 227.689 95.1725 228.599 94.8262 229.146C94.4844 229.692 93.9398 229.977 93.1924 230H92.6865V228.886L93.0488 228.858C93.459 228.813 93.7529 228.576 93.9307 228.147C94.1084 227.719 94.2223 226.926 94.2725 225.769L94.4092 222.604H99.4062ZM106.003 230C105.93 229.854 105.871 229.594 105.825 229.221C105.237 229.831 104.535 230.137 103.72 230.137C102.991 230.137 102.391 229.932 101.922 229.521C101.457 229.107 101.225 228.583 101.225 227.949C101.225 227.179 101.516 226.582 102.1 226.158C102.688 225.73 103.512 225.516 104.574 225.516H105.805V224.935C105.805 224.493 105.673 224.142 105.408 223.882C105.144 223.618 104.754 223.485 104.239 223.485C103.788 223.485 103.41 223.599 103.104 223.827C102.799 224.055 102.646 224.331 102.646 224.654H101.375C101.375 224.285 101.505 223.93 101.765 223.588C102.029 223.242 102.384 222.968 102.831 222.768C103.282 222.567 103.777 222.467 104.314 222.467C105.167 222.467 105.834 222.681 106.317 223.109C106.8 223.533 107.051 224.119 107.069 224.866V228.271C107.069 228.95 107.156 229.49 107.329 229.891V230H106.003ZM103.904 229.036C104.301 229.036 104.677 228.934 105.032 228.729C105.388 228.523 105.645 228.257 105.805 227.929V226.411H104.813C103.264 226.411 102.489 226.865 102.489 227.771C102.489 228.168 102.621 228.478 102.886 228.701C103.15 228.924 103.49 229.036 103.904 229.036ZM113.837 222.604H115.102V230H113.837V224.606L110.426 230H109.161V222.604H110.426V228.004L113.837 222.604ZM114.179 219.91C114.179 220.462 113.99 220.906 113.611 221.243C113.238 221.576 112.745 221.742 112.135 221.742C111.524 221.742 111.03 221.574 110.651 221.236C110.273 220.899 110.084 220.457 110.084 219.91H111.116C111.116 220.229 111.203 220.48 111.376 220.662C111.549 220.84 111.802 220.929 112.135 220.929C112.454 220.929 112.702 220.84 112.88 220.662C113.062 220.484 113.153 220.234 113.153 219.91H114.179ZM122.628 223.629H120.146V230H118.882V223.629H116.448V222.604H122.628V223.629ZM126.381 230.137C125.378 230.137 124.562 229.809 123.934 229.152C123.305 228.492 122.99 227.61 122.99 226.507V226.274C122.99 225.541 123.129 224.887 123.407 224.312C123.69 223.734 124.082 223.283 124.583 222.959C125.089 222.631 125.636 222.467 126.224 222.467C127.185 222.467 127.933 222.784 128.466 223.417C128.999 224.05 129.266 224.957 129.266 226.138V226.664H124.255C124.273 227.393 124.485 227.983 124.891 228.435C125.301 228.881 125.82 229.104 126.449 229.104C126.896 229.104 127.274 229.013 127.584 228.831C127.894 228.649 128.165 228.407 128.397 228.106L129.17 228.708C128.55 229.66 127.62 230.137 126.381 230.137ZM126.224 223.506C125.713 223.506 125.285 223.693 124.938 224.066C124.592 224.436 124.378 224.955 124.296 225.625H128.001V225.529C127.965 224.887 127.791 224.39 127.481 224.039C127.172 223.684 126.752 223.506 126.224 223.506ZM136.806 223.506C136.354 223.506 135.963 223.649 135.63 223.937C135.302 224.224 135.138 224.563 135.138 224.955H133.935C133.935 224.531 134.069 224.126 134.338 223.738C134.607 223.351 134.965 223.043 135.411 222.815C135.858 222.583 136.323 222.467 136.806 222.467C137.767 222.467 138.544 222.815 139.137 223.513C139.734 224.205 140.032 225.112 140.032 226.233V226.445C140.032 227.138 139.896 227.771 139.622 228.346C139.353 228.915 138.973 229.357 138.48 229.672C137.993 229.982 137.435 230.137 136.806 230.137C135.985 230.137 135.302 229.882 134.755 229.371C134.208 228.861 133.935 228.225 133.935 227.464H135.138C135.138 227.929 135.299 228.321 135.623 228.64C135.947 228.954 136.341 229.111 136.806 229.111C137.348 229.111 137.795 228.902 138.146 228.482C138.496 228.063 138.699 227.487 138.754 226.753H135.979V225.714H138.74C138.676 225.049 138.474 224.515 138.132 224.114C137.79 223.709 137.348 223.506 136.806 223.506ZM146.69 223.629H144.209V230H142.944V223.629H140.511V222.604H146.69V223.629ZM147.299 226.233C147.299 225.509 147.44 224.857 147.723 224.278C148.01 223.7 148.406 223.253 148.912 222.938C149.423 222.624 150.004 222.467 150.655 222.467C151.662 222.467 152.476 222.815 153.096 223.513C153.72 224.21 154.032 225.137 154.032 226.295V226.384C154.032 227.104 153.893 227.751 153.615 228.325C153.342 228.895 152.948 229.339 152.433 229.658C151.922 229.977 151.334 230.137 150.669 230.137C149.666 230.137 148.853 229.788 148.229 229.091C147.609 228.394 147.299 227.471 147.299 226.322V226.233ZM148.57 226.384C148.57 227.204 148.759 227.863 149.138 228.359C149.521 228.856 150.031 229.104 150.669 229.104C151.312 229.104 151.822 228.854 152.2 228.353C152.578 227.847 152.768 227.14 152.768 226.233C152.768 225.422 152.574 224.766 152.187 224.265C151.804 223.759 151.293 223.506 150.655 223.506C150.031 223.506 149.527 223.754 149.145 224.251C148.762 224.748 148.57 225.459 148.57 226.384ZM165.141 230H163.876V223.649H160.472V230H159.2V222.604H165.141V230ZM173.419 226.384C173.419 227.509 173.161 228.416 172.646 229.104C172.132 229.793 171.434 230.137 170.555 230.137C169.657 230.137 168.951 229.852 168.436 229.282V232.844H167.171V222.604H168.326L168.388 223.424C168.903 222.786 169.618 222.467 170.534 222.467C171.423 222.467 172.125 222.802 172.64 223.472C173.159 224.142 173.419 225.074 173.419 226.268V226.384ZM172.154 226.24C172.154 225.406 171.977 224.748 171.621 224.265C171.266 223.782 170.778 223.54 170.158 223.54C169.393 223.54 168.818 223.88 168.436 224.559V228.093C168.814 228.767 169.393 229.104 170.172 229.104C170.778 229.104 171.259 228.865 171.614 228.387C171.974 227.904 172.154 227.188 172.154 226.24ZM180.686 222.604V230H179.414V227.122H177.507L175.764 230H174.396L176.256 226.931C175.782 226.757 175.417 226.491 175.162 226.131C174.911 225.766 174.786 225.342 174.786 224.859C174.786 224.185 175.039 223.643 175.545 223.232C176.051 222.818 176.728 222.608 177.575 222.604H180.686ZM176.058 224.873C176.058 225.233 176.181 225.525 176.427 225.748C176.673 225.967 176.999 226.078 177.404 226.083H179.414V223.629H177.596C177.126 223.629 176.753 223.745 176.475 223.978C176.197 224.205 176.058 224.504 176.058 224.873ZM186.975 228.325L189.49 222.604H191.069V230H189.805V224.62L187.412 230H186.537L184.097 224.504V230H182.832V222.604H184.473L186.975 228.325ZM192.771 226.233C192.771 225.509 192.913 224.857 193.195 224.278C193.482 223.7 193.879 223.253 194.385 222.938C194.895 222.624 195.476 222.467 196.128 222.467C197.135 222.467 197.949 222.815 198.568 223.513C199.193 224.21 199.505 225.137 199.505 226.295V226.384C199.505 227.104 199.366 227.751 199.088 228.325C198.814 228.895 198.42 229.339 197.905 229.658C197.395 229.977 196.807 230.137 196.142 230.137C195.139 230.137 194.326 229.788 193.701 229.091C193.081 228.394 192.771 227.471 192.771 226.322V226.233ZM194.043 226.384C194.043 227.204 194.232 227.863 194.61 228.359C194.993 228.856 195.504 229.104 196.142 229.104C196.784 229.104 197.295 228.854 197.673 228.353C198.051 227.847 198.24 227.14 198.24 226.233C198.24 225.422 198.047 224.766 197.659 224.265C197.276 223.759 196.766 223.506 196.128 223.506C195.504 223.506 195 223.754 194.617 224.251C194.234 224.748 194.043 225.459 194.043 226.384ZM207.53 229.104C207.981 229.104 208.376 228.968 208.713 228.694C209.05 228.421 209.237 228.079 209.273 227.669H210.47C210.447 228.093 210.301 228.496 210.032 228.879C209.763 229.262 209.403 229.567 208.952 229.795C208.506 230.023 208.032 230.137 207.53 230.137C206.523 230.137 205.721 229.802 205.124 229.132C204.532 228.457 204.235 227.537 204.235 226.37V226.158C204.235 225.438 204.368 224.798 204.632 224.237C204.896 223.677 205.274 223.242 205.767 222.932C206.263 222.622 206.849 222.467 207.523 222.467C208.353 222.467 209.041 222.715 209.588 223.212C210.139 223.709 210.433 224.354 210.47 225.146H209.273C209.237 224.668 209.055 224.276 208.727 223.971C208.403 223.661 208.002 223.506 207.523 223.506C206.881 223.506 206.382 223.738 206.026 224.203C205.675 224.663 205.5 225.331 205.5 226.206V226.445C205.5 227.298 205.675 227.954 206.026 228.414C206.377 228.874 206.879 229.104 207.53 229.104ZM214.961 230.137C213.958 230.137 213.143 229.809 212.514 229.152C211.885 228.492 211.57 227.61 211.57 226.507V226.274C211.57 225.541 211.709 224.887 211.987 224.312C212.27 223.734 212.662 223.283 213.163 222.959C213.669 222.631 214.216 222.467 214.804 222.467C215.765 222.467 216.513 222.784 217.046 223.417C217.579 224.05 217.846 224.957 217.846 226.138V226.664H212.835C212.853 227.393 213.065 227.983 213.471 228.435C213.881 228.881 214.4 229.104 215.029 229.104C215.476 229.104 215.854 229.013 216.164 228.831C216.474 228.649 216.745 228.407 216.978 228.106L217.75 228.708C217.13 229.66 216.201 230.137 214.961 230.137ZM214.804 223.506C214.293 223.506 213.865 223.693 213.519 224.066C213.172 224.436 212.958 224.955 212.876 225.625H216.581V225.529C216.545 224.887 216.371 224.39 216.062 224.039C215.752 223.684 215.332 223.506 214.804 223.506ZM224.101 222.604H225.365V230H224.101V224.606L220.689 230H219.425V222.604H220.689V228.004L224.101 222.604ZM224.442 219.91C224.442 220.462 224.253 220.906 223.875 221.243C223.501 221.576 223.009 221.742 222.398 221.742C221.788 221.742 221.293 221.574 220.915 221.236C220.537 220.899 220.348 220.457 220.348 219.91H221.38C221.38 220.229 221.466 220.48 221.64 220.662C221.813 220.84 222.066 220.929 222.398 220.929C222.717 220.929 222.966 220.84 223.144 220.662C223.326 220.484 223.417 220.234 223.417 219.91H224.442ZM232.98 230H231.709V227.32C231.153 227.466 230.583 227.539 230 227.539C229.075 227.539 228.368 227.302 227.881 226.828C227.398 226.354 227.152 225.68 227.143 224.805V222.597H228.407V224.846C228.43 225.949 228.961 226.5 230 226.5C230.583 226.5 231.153 226.427 231.709 226.281V222.604H232.98V230ZM239.577 230C239.504 229.854 239.445 229.594 239.399 229.221C238.812 229.831 238.11 230.137 237.294 230.137C236.565 230.137 235.965 229.932 235.496 229.521C235.031 229.107 234.799 228.583 234.799 227.949C234.799 227.179 235.09 226.582 235.674 226.158C236.262 225.73 237.087 225.516 238.148 225.516H239.379V224.935C239.379 224.493 239.247 224.142 238.982 223.882C238.718 223.618 238.328 223.485 237.813 223.485C237.362 223.485 236.984 223.599 236.679 223.827C236.373 224.055 236.221 224.331 236.221 224.654H234.949C234.949 224.285 235.079 223.93 235.339 223.588C235.603 223.242 235.959 222.968 236.405 222.768C236.856 222.567 237.351 222.467 237.889 222.467C238.741 222.467 239.409 222.681 239.892 223.109C240.375 223.533 240.625 224.119 240.644 224.866V228.271C240.644 228.95 240.73 229.49 240.903 229.891V230H239.577ZM237.479 229.036C237.875 229.036 238.251 228.934 238.606 228.729C238.962 228.523 239.219 228.257 239.379 227.929V226.411H238.388C236.838 226.411 236.063 226.865 236.063 227.771C236.063 228.168 236.196 228.478 236.46 228.701C236.724 228.924 237.064 229.036 237.479 229.036ZM245.593 229.104C246.044 229.104 246.438 228.968 246.775 228.694C247.113 228.421 247.299 228.079 247.336 227.669H248.532C248.509 228.093 248.364 228.496 248.095 228.879C247.826 229.262 247.466 229.567 247.015 229.795C246.568 230.023 246.094 230.137 245.593 230.137C244.586 230.137 243.784 229.802 243.187 229.132C242.594 228.457 242.298 227.537 242.298 226.37V226.158C242.298 225.438 242.43 224.798 242.694 224.237C242.959 223.677 243.337 223.242 243.829 222.932C244.326 222.622 244.911 222.467 245.586 222.467C246.415 222.467 247.104 222.715 247.65 223.212C248.202 223.709 248.496 224.354 248.532 225.146H247.336C247.299 224.668 247.117 224.276 246.789 223.971C246.465 223.661 246.064 223.506 245.586 223.506C244.943 223.506 244.444 223.738 244.089 224.203C243.738 224.663 243.562 225.331 243.562 226.206V226.445C243.562 227.298 243.738 227.954 244.089 228.414C244.44 228.874 244.941 229.104 245.593 229.104ZM251.369 227.19H250.228L250.139 220.047H251.465L251.369 227.19ZM250.091 229.364C250.091 229.159 250.152 228.988 250.275 228.852C250.403 228.71 250.59 228.64 250.836 228.64C251.082 228.64 251.269 228.71 251.396 228.852C251.524 228.988 251.588 229.159 251.588 229.364C251.588 229.569 251.524 229.74 251.396 229.877C251.269 230.009 251.082 230.075 250.836 230.075C250.59 230.075 250.403 230.009 250.275 229.877C250.152 229.74 250.091 229.569 250.091 229.364Z" fill="#999999"/>
<g clip-path="url(#clip0)">
<path d="M275.721 137.801C273.702 132.622 272.195 127.124 270.55 121.318C269.439 117.403 267.651 113.026 263.778 111.795C260.005 110.596 255.945 113.081 253.629 116.287C251.308 119.492 250.142 123.374 248.156 126.799C244.559 133.001 238.194 135.602 232.93 130.148C225.41 122.357 222.027 111.74 217.258 102.239C213.798 95.3442 210.899 87.2673 206.537 80.9114C199.886 71.2181 190.766 62.9543 178.642 62.9543C170.957 64.12 164.186 70.9212 159.598 79.4269C155.016 87.9326 152.342 98.0438 150.065 108.133C145.923 126.48 142.886 145.251 139.855 164C139.855 164 292.839 162.219 292.845 162.219C292.234 162.224 288.488 157.215 287.768 156.523C281.893 150.837 278.367 144.591 275.721 137.801Z" fill="#DCE6EF"/>
<path d="M246.682 146.543C246.38 152.487 239.911 162.879 233.964 162.582C228.018 162.285 224.844 151.404 225.146 145.46C225.449 139.517 231.78 109.771 237.727 110.068C243.673 110.365 246.985 140.6 246.682 146.543Z" fill="#6AA5FE"/>
<path d="M237.441 113.934L234.443 162.103" stroke="#1A55B5" stroke-width="0.8675" stroke-miterlimit="10" stroke-linecap="round" stroke-linejoin="round"/>
<path d="M233.073 145.306C231.72 148.281 230.686 151.398 230.064 154.653C229.75 156.303 229.547 158.089 230.295 159.59C231.109 161.234 232.919 162.191 234.729 162.488C239.151 163.214 243.569 160.509 246.159 156.852C248.75 153.202 249.872 148.737 250.901 144.377C251.71 140.946 252.507 137.466 254.037 134.266C254.691 132.897 258.531 127.602 256.716 126.233C254.235 124.281 247.045 126.403 242.441 131.429C238.651 135.563 235.389 140.22 233.073 145.306Z" fill="#FFC957"/>
<path d="M234.729 162.483C234.729 162.483 240.064 141.716 252.953 129.807" stroke="#6AA5FE" stroke-width="0.8675" stroke-miterlimit="10" stroke-linecap="round" stroke-linejoin="round"/>
<path d="M264.335 140.407C263.878 141.226 263.02 141.782 262.244 142.222C261.287 142.76 260.264 143.233 259.279 143.695C258.014 144.283 256.705 144.894 255.495 145.652C254.615 146.208 253.828 146.829 253.173 147.5C254.213 145.141 255.423 143.085 256.853 141.243C258.735 138.824 260.665 137.598 262.596 137.598C262.64 137.598 262.684 137.598 262.728 137.598C263.322 137.614 263.79 137.763 264.109 138.038C264.764 138.598 264.736 139.681 264.335 140.407Z" fill="#1A55B5"/>
<path d="M266.491 153.834C265.726 154.378 264.714 154.516 263.823 154.582C262.728 154.658 261.6 154.653 260.511 154.642C259.114 154.631 257.667 154.62 256.254 154.79C255.22 154.911 254.246 155.142 253.366 155.467C255.313 153.779 257.293 152.437 259.373 151.387C262.112 150.002 264.378 149.721 266.122 150.546C266.161 150.562 266.205 150.584 266.243 150.606C266.777 150.876 267.134 151.211 267.305 151.596C267.651 152.382 267.162 153.355 266.491 153.834Z" fill="#1A55B5"/>
<path d="M261.403 160.443C260.77 160.355 260.198 159.948 259.725 159.563C259.142 159.09 258.586 158.557 258.047 158.045C257.354 157.386 256.644 156.704 255.858 156.127C255.286 155.703 254.692 155.362 254.103 155.109C255.863 155.181 257.475 155.445 259.004 155.896C261.012 156.489 262.277 157.413 262.756 158.639C262.767 158.667 262.778 158.694 262.789 158.727C262.926 159.112 262.948 159.442 262.855 159.717C262.657 160.267 261.964 160.52 261.403 160.443Z" fill="#1A55B5"/>
<path d="M246.93 162.598C246.93 162.598 246.99 149.892 262.514 139.104" stroke="#2A294F" stroke-width="0.7798" stroke-miterlimit="10" stroke-linecap="round" stroke-linejoin="round"/>
<path d="M246.93 162.598C246.93 162.598 251.699 152.388 264.62 152.388" stroke="#2A294F" stroke-width="0.7798" stroke-miterlimit="10" stroke-linecap="round" stroke-linejoin="round"/>
<path d="M253.965 155.23C253.965 155.23 256.468 155.049 261.694 158.986" stroke="#2A294F" stroke-width="0.7798" stroke-miterlimit="10" stroke-linecap="round" stroke-linejoin="round"/>
<path d="M113.528 162.708C109.942 149.149 106.333 135.585 102.114 122.456C99.7378 115.05 97.1084 107.677 93.4613 101.755C89.8143 95.8335 84.9845 91.4624 80.1328 91.4899C72.6626 92.9359 67.8384 100.309 64.6754 108.479C62.6016 113.835 61.5949 120.322 60.1317 125.986C58.1129 133.782 57.0512 142.266 53.1731 149.083C50.4557 153.861 46.2806 152.641 43.4642 148.352C41.9129 145.982 40.8128 143.167 39.0745 141.007C37.3362 138.846 34.5913 137.438 32.3855 138.802C30.1136 140.204 29.437 143.745 29.129 146.857C28.6779 151.47 28.2763 155.83 27.5337 160.014C27.3742 160.927 27.1927 161.823 26.9946 162.719H113.528V162.708Z" fill="#DCE6EF"/>
<path d="M81.4418 143.992C79.1975 141.408 76.359 139.176 75.4679 135.915C74.8133 133.535 75.3304 131.011 75.5834 128.553C75.8364 126.096 75.7484 123.379 74.1587 121.488C72.8495 119.927 70.7757 119.25 68.7844 118.821C66.7931 118.393 64.7137 118.123 62.948 117.111C60.0765 115.468 60.6486 112.669 59.1084 110.217C57.3811 107.462 53.3545 103.949 49.911 105.78C46.2584 107.715 46.836 113.598 49.2674 116.193C50.8791 117.914 52.9419 119.569 53.1785 121.911C53.536 125.441 49.4874 128.625 50.5986 131.995C51.4237 134.486 54.5592 135.338 56.1104 137.455C57.6451 139.55 57.3371 142.48 56.4295 144.91C55.5273 147.341 54.1026 149.589 53.5415 152.124C52.3918 157.303 56.457 160.888 61.0942 162.043C65.3518 163.104 74.5382 162.604 74.5382 162.604C77.8167 161.46 81.4528 158.579 83.2516 155.434C84.6158 153.059 84.8028 150.046 83.7467 147.516C83.2076 146.213 82.3769 145.075 81.4418 143.992Z" fill="#FFC957"/>
<path d="M53.9873 111.366C53.9873 111.366 69.6702 135.58 71.3755 162.466" stroke="#6AA5FE" stroke-miterlimit="10" stroke-linecap="round" stroke-linejoin="round"/>
<path d="M40.0206 144.025C40.2626 143.816 40.6147 143.706 41.0657 143.695C41.0987 143.695 41.1317 143.695 41.1648 143.695C42.6225 143.695 44.0857 144.625 45.5049 146.455C46.5886 147.846 47.5017 149.402 48.2883 151.184C47.7933 150.678 47.1992 150.205 46.5336 149.787C45.6204 149.215 44.6303 148.754 43.6731 148.308C42.925 147.962 42.1549 147.605 41.4288 147.192C40.8402 146.862 40.1911 146.439 39.85 145.823C39.542 145.273 39.5255 144.454 40.0206 144.025Z" fill="#6AA5FE"/>
<path d="M37.6059 154.279C37.7379 153.988 38.0074 153.735 38.409 153.531C38.4365 153.515 38.4695 153.504 38.497 153.488C39.8172 152.861 41.5335 153.075 43.6018 154.125C45.175 154.923 46.6713 155.934 48.14 157.21C47.4744 156.962 46.7373 156.792 45.9562 156.698C44.8835 156.572 43.7888 156.577 42.7327 156.583C41.9075 156.588 41.0604 156.594 40.2298 156.534C39.5587 156.484 38.7886 156.38 38.2165 155.973C37.7104 155.61 37.3418 154.879 37.6059 154.279Z" fill="#6AA5FE"/>
<path d="M40.9669 160.415C40.8954 160.212 40.9119 159.959 41.0164 159.668C41.0219 159.646 41.0329 159.624 41.0384 159.602C41.4015 158.672 42.3531 157.974 43.8769 157.523C45.032 157.182 46.2532 156.984 47.5844 156.929C47.1389 157.122 46.6878 157.38 46.2587 157.699C45.6646 158.139 45.1256 158.656 44.603 159.151C44.1959 159.541 43.7779 159.942 43.3378 160.3C42.9802 160.591 42.5512 160.899 42.0726 160.965C41.6435 161.026 41.1154 160.833 40.9669 160.415Z" fill="#6AA5FE"/>
<path d="M53.0084 162.598C53.0084 162.598 52.9644 152.987 41.2256 144.833" stroke="#2A294F" stroke-width="0.7798" stroke-miterlimit="10" stroke-linecap="round" stroke-linejoin="round"/>
<path d="M53.0084 162.598C53.0084 162.598 49.4054 154.879 39.6304 154.879" stroke="#2A294F" stroke-width="0.7798" stroke-miterlimit="10" stroke-linecap="round" stroke-linejoin="round"/>
<path d="M47.6891 157.028C47.6891 157.028 45.7968 156.891 41.8472 159.871" stroke="#2A294F" stroke-width="0.7798" stroke-miterlimit="10" stroke-linecap="round" stroke-linejoin="round"/>
<path d="M178.95 162.598H75.4459C72.5744 162.598 70.2476 160.272 70.2476 157.402V17.1216C70.2476 14.2515 72.5744 11.9258 75.4459 11.9258H178.95C181.821 11.9258 184.148 14.2515 184.148 17.1216V157.408C184.148 160.272 181.821 162.598 178.95 162.598Z" fill="#6AA5FE"/>
<path d="M70.2529 48.6316V157.408C70.2529 160.278 72.5798 162.604 75.4512 162.604H178.955C181.827 162.604 184.153 160.278 184.153 157.408V135.937L70.2529 48.6316Z" fill="#527EE9"/>
<path d="M175.407 155.648H78.9939C77.8222 155.648 76.8706 154.697 76.8706 153.526V20.9978C76.8706 19.8267 77.8222 18.8755 78.9939 18.8755H175.407C176.579 18.8755 177.531 19.8267 177.531 20.9978V153.526C177.531 154.697 176.579 155.648 175.407 155.648Z" fill="#F3F4F6"/>
<path d="M135.834 9.07764C135.839 8.93468 135.856 8.79723 135.856 8.64878C135.856 3.87085 131.978 -0.00537109 127.198 -0.00537109C122.417 -0.00537109 118.539 3.87085 118.539 8.64878C118.539 8.79173 118.556 8.93468 118.561 9.07764H105.838V22.2678H148.557V9.07764H135.834Z" fill="#1A55B5"/>
<path d="M105.843 9.07764V22.2678H148.557L105.843 9.07764Z" fill="#2C6BC6"/>
<path d="M129.069 13.1364C131.547 12.1035 132.719 9.25764 131.686 6.78001C130.652 4.30238 127.805 3.13121 125.326 4.16414C122.847 5.19707 121.676 8.04294 122.709 10.5206C123.743 12.9982 126.59 14.1694 129.069 13.1364Z" fill="#527EE9"/>
<path d="M123.765 5.21802C121.867 7.11489 121.867 10.1939 123.765 12.0908C125.663 13.9876 128.743 13.9876 130.641 12.0908L123.765 5.21802Z" fill="#6AA5FE"/>
<path d="M148.563 22.2678H105.843V23.175H148.563V22.2678Z" fill="#CDE1F9"/>
<path d="M104.699 40.5327H88.4995V56.7249H104.699V40.5327Z" stroke="#1A55B5" stroke-miterlimit="10"/>
<path d="M93.2412 49.4564L98.1975 53.3491L108.27 43.6448" stroke="#F3F4F6" stroke-width="4" stroke-miterlimit="10"/>
<path d="M92.1411 48.3568L97.0974 52.2495L107.169 42.5452" stroke="#FF746F" stroke-width="4" stroke-miterlimit="10"/>
<path d="M165.275 45.1291H112.483C112.137 45.1291 111.862 44.8487 111.862 44.5078C111.862 44.1614 112.142 43.8865 112.483 43.8865H165.281C165.627 43.8865 165.902 44.1669 165.902 44.5078C165.902 44.8487 165.622 45.1291 165.275 45.1291Z" fill="#6AA5FE"/>
<path d="M165.275 47.8781H112.483C112.137 47.8781 111.862 47.5977 111.862 47.2568C111.862 46.9104 112.142 46.6355 112.483 46.6355H165.281C165.627 46.6355 165.902 46.9159 165.902 47.2568C165.902 47.5977 165.622 47.8781 165.275 47.8781Z" fill="#6AA5FE"/>
<path d="M165.275 50.6274H112.483C112.137 50.6274 111.862 50.347 111.862 50.0061C111.862 49.6597 112.142 49.3848 112.483 49.3848H165.281C165.627 49.3848 165.902 49.6652 165.902 50.0061C165.902 50.347 165.622 50.6274 165.275 50.6274Z" fill="#6AA5FE"/>
<path d="M165.275 53.3764H112.483C112.137 53.3764 111.862 53.096 111.862 52.7551C111.862 52.4087 112.142 52.1338 112.483 52.1338H165.281C165.627 52.1338 165.902 52.4142 165.902 52.7551C165.902 53.096 165.622 53.3764 165.275 53.3764Z" fill="#6AA5FE"/>
<path d="M104.699 66.6052H88.4995V82.7974H104.699V66.6052Z" stroke="#1A55B5" stroke-miterlimit="10"/>
<path d="M93.2412 75.5289L98.1975 79.4161L108.27 69.7173" stroke="#F3F4F6" stroke-width="4" stroke-miterlimit="10"/>
<path d="M92.1411 74.4293L97.0974 78.3165L107.169 68.6177" stroke="#FF746F" stroke-width="4" stroke-miterlimit="10"/>
<path d="M165.275 71.2016H112.483C112.137 71.2016 111.862 70.9212 111.862 70.5803C111.862 70.2339 112.142 69.959 112.483 69.959H165.281C165.627 69.959 165.902 70.2394 165.902 70.5803C165.902 70.9212 165.622 71.2016 165.275 71.2016Z" fill="#6AA5FE"/>
<path d="M165.275 73.9506H112.483C112.137 73.9506 111.862 73.6702 111.862 73.3293C111.862 72.9829 112.142 72.708 112.483 72.708H165.281C165.627 72.708 165.902 72.9884 165.902 73.3293C165.902 73.6702 165.622 73.9506 165.275 73.9506Z" fill="#6AA5FE"/>
<path d="M165.275 76.6999H112.483C112.137 76.6999 111.862 76.4195 111.862 76.0786C111.862 75.7322 112.142 75.4573 112.483 75.4573H165.281C165.627 75.4573 165.902 75.7377 165.902 76.0786C165.902 76.4195 165.622 76.6999 165.275 76.6999Z" fill="#6AA5FE"/>
<path d="M165.275 79.4489H112.483C112.137 79.4489 111.862 79.1685 111.862 78.8276C111.862 78.4812 112.142 78.2063 112.483 78.2063H165.281C165.627 78.2063 165.902 78.4867 165.902 78.8276C165.902 79.1685 165.622 79.4489 165.275 79.4489Z" fill="#6AA5FE"/>
<path d="M104.699 92.6775H88.4995V108.87H104.699V92.6775Z" stroke="#1A55B5" stroke-miterlimit="10"/>
<path d="M93.2412 101.601L98.1975 105.488L108.27 95.7896" stroke="#F3F4F6" stroke-width="4" stroke-miterlimit="10"/>
<path d="M92.1411 100.502L97.0974 104.389L107.169 94.6899" stroke="#FF746F" stroke-width="4" stroke-miterlimit="10"/>
<path d="M165.275 97.2738H112.483C112.137 97.2738 111.862 96.9934 111.862 96.6525C111.862 96.3062 112.142 96.0312 112.483 96.0312H165.281C165.627 96.0312 165.902 96.3117 165.902 96.6525C165.902 96.9934 165.622 97.2738 165.275 97.2738Z" fill="#6AA5FE"/>
<path d="M165.275 100.023H112.483C112.137 100.023 111.862 99.7424 111.862 99.4016C111.862 99.0552 112.142 98.7803 112.483 98.7803H165.281C165.627 98.7803 165.902 99.0607 165.902 99.4016C165.902 99.7424 165.622 100.023 165.275 100.023Z" fill="#6AA5FE"/>
<path d="M165.275 102.772H112.483C112.137 102.772 111.862 102.492 111.862 102.151C111.862 101.804 112.142 101.53 112.483 101.53H165.281C165.627 101.53 165.902 101.81 165.902 102.151C165.902 102.492 165.622 102.772 165.275 102.772Z" fill="#6AA5FE"/>
<path d="M165.275 105.521H112.483C112.137 105.521 111.862 105.241 111.862 104.9C111.862 104.553 112.142 104.279 112.483 104.279H165.281C165.627 104.279 165.902 104.559 165.902 104.9C165.902 105.241 165.622 105.521 165.275 105.521Z" fill="#6AA5FE"/>
<path d="M104.699 118.75H88.4995V134.942H104.699V118.75Z" stroke="#1A55B5" stroke-miterlimit="10"/>
<path d="M93.2412 127.674L98.1975 131.561L108.27 121.862" stroke="#F3F4F6" stroke-width="4" stroke-miterlimit="10"/>
<path d="M92.1411 126.574L97.0974 130.461L107.169 120.762" stroke="#FF746F" stroke-width="4" stroke-miterlimit="10"/>
<path d="M165.275 123.346H112.483C112.137 123.346 111.862 123.066 111.862 122.725C111.862 122.379 112.142 122.104 112.483 122.104H165.281C165.627 122.104 165.902 122.384 165.902 122.725C165.902 123.066 165.622 123.346 165.275 123.346Z" fill="#6AA5FE"/>
<path d="M165.275 126.095H112.483C112.137 126.095 111.862 125.815 111.862 125.474C111.862 125.128 112.142 124.853 112.483 124.853H165.281C165.627 124.853 165.902 125.133 165.902 125.474C165.902 125.815 165.622 126.095 165.275 126.095Z" fill="#6AA5FE"/>
<path d="M165.275 128.845H112.483C112.137 128.845 111.862 128.564 111.862 128.223C111.862 127.877 112.142 127.602 112.483 127.602H165.281C165.627 127.602 165.902 127.882 165.902 128.223C165.902 128.564 165.622 128.845 165.275 128.845Z" fill="#6AA5FE"/>
<path d="M165.275 131.594H112.483C112.137 131.594 111.862 131.313 111.862 130.972C111.862 130.626 112.142 130.351 112.483 130.351H165.281C165.627 130.351 165.902 130.631 165.902 130.972C165.902 131.313 165.622 131.594 165.275 131.594Z" fill="#6AA5FE"/>
<path d="M188.78 54.421C188.444 54.6794 185.391 56.4828 185.391 56.4828L183.224 53.7118L183.868 50.5503L188.532 50.8417L189.347 53.2004C189.539 53.7557 189.193 54.1021 188.78 54.421Z" fill="#FE9280"/>
<path d="M188.526 50.8363L189.231 52.9036L187.08 53.7668C186.673 53.9428 186.211 53.9758 185.782 53.8603C184.835 53.6074 184.214 52.6892 184.335 51.716L184.472 50.5779L188.526 50.8363Z" fill="#E86767"/>
<path d="M187.471 53.602L189.335 53.8714L190.359 52.123C190.557 51.8096 190.463 51.3917 190.15 51.1883C189.836 50.9904 189.418 51.0838 189.214 51.3972L187.471 53.602Z" fill="#FF746F"/>
<path d="M186.063 61.0796L182.217 62.0528L180.842 73.1811L185.342 73.3625L186.063 61.0796Z" fill="white"/>
<path d="M236.615 70.1129L229.893 69.2662L231.433 57.0547L238.155 57.9014C241.527 58.3248 243.92 61.4038 243.497 64.7796C243.068 68.15 239.987 70.5363 236.615 70.1129Z" fill="#FE9280"/>
<path opacity="0.2" d="M236.967 67.331L230.245 66.4843L229.893 69.2664L236.615 70.1131C239.987 70.5365 243.068 68.1503 243.497 64.7744C243.557 64.296 243.557 63.8232 243.513 63.3613C242.539 65.9895 239.861 67.6994 236.967 67.331Z" fill="#777470"/>
<path d="M229.074 69.1673L157.766 59.9743L159.301 47.7573L230.614 56.9503L229.074 69.1673Z" fill="#FFC957"/>
<path d="M145.059 52.1669L157.766 59.9743L159.301 47.7573L145.059 52.1669Z" fill="#FFF4DD"/>
<path opacity="0.2" d="M145.059 52.1667L157.766 59.9742L158.14 56.9832L145.059 52.1667Z" fill="#777470"/>
<path d="M149.3 50.8584L145.059 52.167L148.844 54.4927L149.3 50.8584Z" fill="#2A294F"/>
<path d="M236.521 57.695L230.621 56.9526L229.082 69.1671L234.982 69.9094L236.521 57.695Z" fill="#D3EAF5"/>
<path d="M236.59 57.1752L234.571 56.9211L232.901 70.183L234.92 70.4371L236.59 57.1752Z" fill="#D3EAF5"/>
<path opacity="0.2" d="M232.957 69.6565L157.766 59.9742L158.14 56.9832L233.337 66.6655L232.957 69.6565Z" fill="#777470"/>
<path opacity="0.05" d="M234.197 60.6733L159 50.9855L159.374 48L234.571 57.6823L234.197 60.6733Z" fill="#777470"/>
<path opacity="0.15" d="M235.428 66.381L233.408 66.127L232.898 70.1802L234.917 70.4343L235.428 66.381Z" fill="#777470"/>
<path d="M205.678 93.8981L206.69 91.2975L210.084 91.0336C210.711 90.9676 211.262 91.347 211.322 91.8803C211.377 92.4136 210.921 92.9029 210.293 92.9689L205.678 93.8981Z" fill="#E86767"/>
<path d="M203.929 91.3085L205.678 93.8981L209.006 93.2274L205.299 87.6797L204.578 88.1525C203.528 88.8453 203.236 90.2583 203.929 91.3085Z" fill="#FF746F"/>
<path d="M207.208 49.5937C203.747 44.5574 195.04 45.899 195.265 53.9703C195.265 53.9923 195.265 54.0198 195.271 54.0418C195.249 55.0644 195.282 56.1091 195.018 57.0713C194.88 57.5606 194.649 58.0115 194.292 58.3359C193.939 58.6658 193.483 58.8637 193.004 58.9627C192.52 59.0726 191.992 59.0946 191.453 59.2046C190.908 59.3145 190.38 59.5125 189.902 59.7984C188.939 60.3592 188.153 61.2774 187.795 62.3605C187.107 64.5158 187.658 67.012 189.28 68.634C189.687 69.0298 190.16 69.3707 190.683 69.6126C191.2 69.8656 191.789 69.959 192.267 70.058C193.274 70.2779 194.292 70.5693 195.326 70.7728L195.353 70.6848C194.396 70.2449 193.455 69.7831 192.443 69.4312C191.915 69.2443 191.464 69.1398 191.052 68.8869C190.644 68.645 190.265 68.3481 189.946 67.9907C189.308 67.2814 188.84 66.4072 188.576 65.4725C188.312 64.5378 188.257 63.5317 188.521 62.6025C188.78 61.6788 189.401 60.876 190.226 60.3427C190.633 60.0733 191.096 59.8809 191.574 59.7599C192.058 59.6389 192.586 59.5895 193.12 59.4465C193.653 59.309 194.182 59.0396 194.572 58.6218C194.968 58.2094 195.194 57.6761 195.304 57.1483C195.381 56.7744 195.419 56.395 195.43 56.0211C195.524 57.5276 195.392 59.0561 193.846 59.6334C192.955 59.9688 192.086 59.9688 191.255 60.5186C190.441 61.063 189.797 61.8657 189.484 62.7894C188.51 65.643 191.041 69.3377 194.016 69.6566C195.249 69.7886 196.481 70.0855 197.697 70.3054C198.038 70.3659 202.823 71.3446 202.862 71.2346L208.401 54.8445L207.208 49.5937Z" fill="#1A55B5"/>
<path d="M206.944 90.1374L218.176 82.3024L216.609 77.9644L205.299 87.6742L206.944 90.1374Z" fill="white"/>
<path d="M215.173 81.2302C215.706 82.3519 217.049 82.8357 218.171 82.3024C219.293 81.7691 219.777 80.4275 219.243 79.3059C218.71 78.1842 217.368 77.7004 216.246 78.2337C215.123 78.7615 214.645 80.1031 215.173 81.2302Z" fill="white"/>
<path d="M215.734 82.0385L218.936 78.8716L209.689 68.4745C208.638 67.056 206.575 66.902 205.321 68.1391C204.067 69.3762 204.204 72.8235 205.607 73.8902L215.734 82.0385Z" fill="white"/>
<path d="M200.091 67.6713L203.878 67.9919L204.55 60.0647L200.763 59.744L200.091 67.6713Z" fill="#FF746F"/>
<path d="M182.85 71.4986C181.607 71.5811 180.672 72.6532 180.754 73.8958C180.837 75.1384 181.909 76.0731 183.152 75.9906C184.396 75.9082 185.331 74.836 185.248 73.5934C185.166 72.3508 184.093 71.4107 182.85 71.4986Z" fill="white"/>
<path d="M181.431 71.8284L183.714 75.8806L197.658 71.8284C199.369 71.394 200.293 68.1611 199.622 66.5336C198.951 64.9062 196.987 64.2464 195.469 65.1481L181.431 71.8284Z" fill="white"/>
<path d="M202.774 87.4597L209.832 70.1514C210.189 68.7328 209.232 67.3253 207.785 67.1274L197.653 64.8291C196.206 64.6312 194.908 65.7363 194.875 67.1989L191.409 86.0741L202.774 87.4597Z" fill="white"/>
<path d="M201.635 50.5173C200.464 51.9963 198.362 52.6176 197.867 53.9757L197.763 54.6025C197.763 54.63 197.763 54.6575 197.763 54.6905L197.752 54.6685L197.433 56.5653C197.026 58.968 198.648 61.2443 201.052 61.6512C203.456 62.058 205.733 60.4361 206.14 58.0334L206.504 55.8946C206.245 53.7283 202.273 53.5578 201.635 50.5173Z" fill="#FF746F"/>
<path d="M205.673 57.0274C205.579 57.5827 205.954 58.1161 206.515 58.2095C207.07 58.303 207.604 57.9291 207.697 57.3683C207.791 56.813 207.417 56.2797 206.856 56.1862C206.3 56.0927 205.772 56.4666 205.673 57.0274Z" fill="#FF746F"/>
<path d="M196.399 86.6845L201.476 99.2149L196.624 157.754H192.895L188.505 98.852L191.404 86.0742L196.399 86.6845Z" fill="#1A55B5"/>
<path d="M196.398 86.6846V99.2149L219.254 157.754H222.054L209.826 97.0047L202.774 87.4598L196.398 86.6846Z" fill="#527EE9"/>
<path d="M194.985 160.811H193.422V157.754H195.447L194.985 160.811Z" fill="#FF746F"/>
<path d="M193.373 160.118L194.286 160.52L195.128 160.118L195.892 162.598H188.846L191.492 161.361L193.373 160.118Z" fill="#2A294F"/>
<path d="M221.097 160.811H222.654L221.735 157.754H219.711L221.097 160.811Z" fill="#FF746F"/>
<path d="M222.709 160.118L221.796 160.52L220.949 160.118L220.189 162.598H227.236L224.59 161.361L222.709 160.118Z" fill="#2A294F"/>
<path d="M198.269 74.2696C198.269 76.0346 196.839 77.4641 195.073 77.4641C193.307 77.4641 191.877 76.0346 191.877 74.2696C191.877 72.5047 193.307 71.0752 195.073 71.0752C196.839 71.0752 198.269 72.5047 198.269 74.2696Z" fill="white"/>
<path d="M197.944 64.9172L198.346 71.779L204.281 65.7365L197.944 64.9172Z" fill="#FF746F"/>
<path d="M210.866 51.0509C210.36 50.4021 209.738 49.8798 209.05 49.5224C207.934 48.9341 206.674 49.0001 205.651 48.1204L206.449 56.1752C207.917 55.7573 207.829 58.9188 206.135 58.0446C206.135 58.0446 202.774 59.4851 201.498 62.6301C200.623 64.7414 200.475 67.2101 200.706 68.6176C201.118 71.1413 203.258 72.4499 205.695 71.7076C207.147 71.2622 208.33 70.1681 209.172 68.898C212.114 64.4555 214.073 57.1539 211.559 52.1395C211.355 51.7437 211.124 51.3808 210.866 51.0509Z" fill="#1A55B5"/>
<path d="M183.824 50.0776L183.741 50.589C183.571 51.6556 184.297 52.6618 185.364 52.8377L186.2 52.9697C187.267 53.1401 188.274 52.4144 188.45 51.3477L188.532 50.8364L183.824 50.0776Z" fill="#FF746F"/>
<path d="M201.767 56.9668C201.503 56.8018 199.765 56.4775 199.556 56.5929C199.33 56.7194 199.237 57.0163 199.297 57.2692C199.358 57.5221 199.545 57.7255 199.754 57.874C200.238 58.2039 200.898 58.2589 201.432 58.0114C201.635 57.918 201.822 57.775 201.91 57.5661C202.004 57.3627 201.96 57.0877 201.767 56.9668Z" fill="white"/>
<path d="M27.4785 162.598H293.785" stroke="#2A294F" stroke-width="0.7798" stroke-miterlimit="10" stroke-linecap="round" stroke-linejoin="round"/>
</g>
<defs>
<clipPath id="clip0">
<rect x="27" width="267" height="164" fill="white"/>
</clipPath>
</defs>
</svg>
